<mxfile host="Electron" agent="Mozilla/5.0 (Macintosh; Intel Mac OS X 10_15_7) AppleWebKit/537.36 (KHTML, like Gecko) draw.io/25.0.2 Chrome/128.0.6613.186 Electron/32.2.5 Safari/537.36" version="25.0.2">
  <diagram id="C5RBs43oDa-KdzZeNtuy" name="Page-1">
    <mxGraphModel dx="1041" dy="613" grid="1" gridSize="10" guides="1" tooltips="1" connect="1" arrows="1" fold="1" page="1" pageScale="1" pageWidth="827" pageHeight="1169" math="0" shadow="0">
      <root>
        <mxCell id="WIyWlLk6GJQsqaUBKTNV-0" />
        <mxCell id="WIyWlLk6GJQsqaUBKTNV-1" parent="WIyWlLk6GJQsqaUBKTNV-0" />
        <mxCell id="WIyWlLk6GJQsqaUBKTNV-5" value="No" style="edgeStyle=orthogonalEdgeStyle;rounded=0;html=1;jettySize=auto;orthogonalLoop=1;fontSize=11;endArrow=block;endFill=0;endSize=8;strokeWidth=1;shadow=0;labelBackgroundColor=none;" parent="WIyWlLk6GJQsqaUBKTNV-1" source="WIyWlLk6GJQsqaUBKTNV-6" target="WIyWlLk6GJQsqaUBKTNV-7" edge="1">
          <mxGeometry y="10" relative="1" as="geometry">
            <mxPoint as="offset" />
          </mxGeometry>
        </mxCell>
        <mxCell id="yOrsMwtDgCDL1MWCUsw5-3" value="" style="edgeStyle=orthogonalEdgeStyle;rounded=0;orthogonalLoop=1;jettySize=auto;html=1;" edge="1" parent="WIyWlLk6GJQsqaUBKTNV-1" source="WIyWlLk6GJQsqaUBKTNV-6" target="yOrsMwtDgCDL1MWCUsw5-2">
          <mxGeometry relative="1" as="geometry" />
        </mxCell>
        <mxCell id="yOrsMwtDgCDL1MWCUsw5-62" value="YES" style="edgeLabel;html=1;align=center;verticalAlign=middle;resizable=0;points=[];" vertex="1" connectable="0" parent="yOrsMwtDgCDL1MWCUsw5-3">
          <mxGeometry x="-0.4667" relative="1" as="geometry">
            <mxPoint as="offset" />
          </mxGeometry>
        </mxCell>
        <mxCell id="WIyWlLk6GJQsqaUBKTNV-6" value="for i in range(episode)" style="rhombus;whiteSpace=wrap;html=1;shadow=0;fontFamily=Helvetica;fontSize=12;align=center;strokeWidth=1;spacing=6;spacingTop=-4;" parent="WIyWlLk6GJQsqaUBKTNV-1" vertex="1">
          <mxGeometry x="140" y="185" width="160" height="50" as="geometry" />
        </mxCell>
        <mxCell id="WIyWlLk6GJQsqaUBKTNV-7" value="agent.save()" style="rounded=1;whiteSpace=wrap;html=1;fontSize=12;glass=0;strokeWidth=1;shadow=0;" parent="WIyWlLk6GJQsqaUBKTNV-1" vertex="1">
          <mxGeometry x="20" y="190" width="90" height="40" as="geometry" />
        </mxCell>
        <mxCell id="yOrsMwtDgCDL1MWCUsw5-1" value="" style="edgeStyle=orthogonalEdgeStyle;rounded=0;orthogonalLoop=1;jettySize=auto;html=1;" edge="1" parent="WIyWlLk6GJQsqaUBKTNV-1" source="yOrsMwtDgCDL1MWCUsw5-0" target="WIyWlLk6GJQsqaUBKTNV-6">
          <mxGeometry relative="1" as="geometry" />
        </mxCell>
        <mxCell id="yOrsMwtDgCDL1MWCUsw5-0" value="env=createSumoEnv()&lt;div&gt;agent=MyAgent(env.obs_space,env.act_space)&lt;/div&gt;" style="rounded=1;whiteSpace=wrap;html=1;fontSize=12;glass=0;strokeWidth=1;shadow=0;" vertex="1" parent="WIyWlLk6GJQsqaUBKTNV-1">
          <mxGeometry x="75" y="100" width="290" height="40" as="geometry" />
        </mxCell>
        <mxCell id="yOrsMwtDgCDL1MWCUsw5-5" value="" style="edgeStyle=orthogonalEdgeStyle;rounded=0;orthogonalLoop=1;jettySize=auto;html=1;" edge="1" parent="WIyWlLk6GJQsqaUBKTNV-1" source="yOrsMwtDgCDL1MWCUsw5-2" target="yOrsMwtDgCDL1MWCUsw5-4">
          <mxGeometry relative="1" as="geometry" />
        </mxCell>
        <mxCell id="yOrsMwtDgCDL1MWCUsw5-2" value="obs = env.reset()&lt;div&gt;done = False&lt;/div&gt;&lt;div&gt;total_reward=0&lt;/div&gt;" style="rounded=1;whiteSpace=wrap;html=1;" vertex="1" parent="WIyWlLk6GJQsqaUBKTNV-1">
          <mxGeometry x="147.5" y="270" width="145" height="60" as="geometry" />
        </mxCell>
        <mxCell id="yOrsMwtDgCDL1MWCUsw5-8" value="YES" style="edgeStyle=orthogonalEdgeStyle;rounded=0;orthogonalLoop=1;jettySize=auto;html=1;" edge="1" parent="WIyWlLk6GJQsqaUBKTNV-1" source="yOrsMwtDgCDL1MWCUsw5-4" target="yOrsMwtDgCDL1MWCUsw5-7">
          <mxGeometry relative="1" as="geometry" />
        </mxCell>
        <mxCell id="yOrsMwtDgCDL1MWCUsw5-11" value="" style="edgeStyle=orthogonalEdgeStyle;rounded=0;orthogonalLoop=1;jettySize=auto;html=1;" edge="1" parent="WIyWlLk6GJQsqaUBKTNV-1" source="yOrsMwtDgCDL1MWCUsw5-4" target="yOrsMwtDgCDL1MWCUsw5-10">
          <mxGeometry relative="1" as="geometry" />
        </mxCell>
        <mxCell id="yOrsMwtDgCDL1MWCUsw5-61" value="NO" style="edgeLabel;html=1;align=center;verticalAlign=middle;resizable=0;points=[];" vertex="1" connectable="0" parent="yOrsMwtDgCDL1MWCUsw5-11">
          <mxGeometry x="-0.4227" y="3" relative="1" as="geometry">
            <mxPoint as="offset" />
          </mxGeometry>
        </mxCell>
        <mxCell id="yOrsMwtDgCDL1MWCUsw5-4" value="while not done" style="rhombus;whiteSpace=wrap;html=1;" vertex="1" parent="WIyWlLk6GJQsqaUBKTNV-1">
          <mxGeometry x="140" y="370" width="160" height="40" as="geometry" />
        </mxCell>
        <mxCell id="yOrsMwtDgCDL1MWCUsw5-6" style="edgeStyle=orthogonalEdgeStyle;rounded=0;orthogonalLoop=1;jettySize=auto;html=1;exitX=0.5;exitY=1;exitDx=0;exitDy=0;" edge="1" parent="WIyWlLk6GJQsqaUBKTNV-1" source="yOrsMwtDgCDL1MWCUsw5-4" target="yOrsMwtDgCDL1MWCUsw5-4">
          <mxGeometry relative="1" as="geometry" />
        </mxCell>
        <mxCell id="yOrsMwtDgCDL1MWCUsw5-9" style="edgeStyle=orthogonalEdgeStyle;rounded=0;orthogonalLoop=1;jettySize=auto;html=1;entryX=0;entryY=0.5;entryDx=0;entryDy=0;" edge="1" parent="WIyWlLk6GJQsqaUBKTNV-1" source="yOrsMwtDgCDL1MWCUsw5-7" target="yOrsMwtDgCDL1MWCUsw5-4">
          <mxGeometry relative="1" as="geometry">
            <Array as="points">
              <mxPoint x="80" y="490" />
              <mxPoint x="80" y="390" />
            </Array>
          </mxGeometry>
        </mxCell>
        <mxCell id="yOrsMwtDgCDL1MWCUsw5-7" value="action=agent.predict(obs)&lt;div&gt;next_obs,reward,done,info=env.step(action)&lt;/div&gt;&lt;div&gt;agent.learn(obs,action,reward,next_obs,done)&lt;/div&gt;&lt;div&gt;obs=next_obs&lt;/div&gt;&lt;div&gt;total_reward += reward&lt;/div&gt;" style="rounded=1;whiteSpace=wrap;html=1;" vertex="1" parent="WIyWlLk6GJQsqaUBKTNV-1">
          <mxGeometry x="95" y="450" width="250" height="90" as="geometry" />
        </mxCell>
        <mxCell id="yOrsMwtDgCDL1MWCUsw5-12" style="edgeStyle=orthogonalEdgeStyle;rounded=0;orthogonalLoop=1;jettySize=auto;html=1;entryX=1;entryY=0.5;entryDx=0;entryDy=0;" edge="1" parent="WIyWlLk6GJQsqaUBKTNV-1" source="yOrsMwtDgCDL1MWCUsw5-10" target="WIyWlLk6GJQsqaUBKTNV-6">
          <mxGeometry relative="1" as="geometry">
            <Array as="points">
              <mxPoint x="430" y="210" />
            </Array>
          </mxGeometry>
        </mxCell>
        <mxCell id="yOrsMwtDgCDL1MWCUsw5-10" value="end loop" style="rounded=1;whiteSpace=wrap;html=1;fontSize=12;glass=0;strokeWidth=1;shadow=0;" vertex="1" parent="WIyWlLk6GJQsqaUBKTNV-1">
          <mxGeometry x="380" y="370" width="90" height="40" as="geometry" />
        </mxCell>
        <mxCell id="yOrsMwtDgCDL1MWCUsw5-15" value="action = agent.predict(obs)" style="rounded=1;whiteSpace=wrap;html=1;" vertex="1" parent="WIyWlLk6GJQsqaUBKTNV-1">
          <mxGeometry x="580" y="100" width="120" height="60" as="geometry" />
        </mxCell>
        <mxCell id="yOrsMwtDgCDL1MWCUsw5-18" value="" style="edgeStyle=orthogonalEdgeStyle;rounded=0;orthogonalLoop=1;jettySize=auto;html=1;" edge="1" parent="WIyWlLk6GJQsqaUBKTNV-1" source="yOrsMwtDgCDL1MWCUsw5-16" target="yOrsMwtDgCDL1MWCUsw5-17">
          <mxGeometry relative="1" as="geometry" />
        </mxCell>
        <mxCell id="yOrsMwtDgCDL1MWCUsw5-16" value="obs,reward,done,info = env.step(action)" style="rounded=1;whiteSpace=wrap;html=1;" vertex="1" parent="WIyWlLk6GJQsqaUBKTNV-1">
          <mxGeometry x="115" y="570" width="120" height="60" as="geometry" />
        </mxCell>
        <mxCell id="yOrsMwtDgCDL1MWCUsw5-20" value="" style="edgeStyle=orthogonalEdgeStyle;rounded=0;orthogonalLoop=1;jettySize=auto;html=1;" edge="1" parent="WIyWlLk6GJQsqaUBKTNV-1" source="yOrsMwtDgCDL1MWCUsw5-17" target="yOrsMwtDgCDL1MWCUsw5-19">
          <mxGeometry relative="1" as="geometry" />
        </mxCell>
        <mxCell id="yOrsMwtDgCDL1MWCUsw5-31" value="" style="edgeStyle=orthogonalEdgeStyle;rounded=0;orthogonalLoop=1;jettySize=auto;html=1;" edge="1" parent="WIyWlLk6GJQsqaUBKTNV-1" source="yOrsMwtDgCDL1MWCUsw5-17" target="yOrsMwtDgCDL1MWCUsw5-30">
          <mxGeometry relative="1" as="geometry" />
        </mxCell>
        <mxCell id="yOrsMwtDgCDL1MWCUsw5-17" value="env._apply_actions(action)" style="rounded=1;whiteSpace=wrap;html=1;" vertex="1" parent="WIyWlLk6GJQsqaUBKTNV-1">
          <mxGeometry x="100" y="660" width="150" height="60" as="geometry" />
        </mxCell>
        <mxCell id="yOrsMwtDgCDL1MWCUsw5-22" value="" style="edgeStyle=orthogonalEdgeStyle;rounded=0;orthogonalLoop=1;jettySize=auto;html=1;" edge="1" parent="WIyWlLk6GJQsqaUBKTNV-1" source="yOrsMwtDgCDL1MWCUsw5-19" target="yOrsMwtDgCDL1MWCUsw5-21">
          <mxGeometry relative="1" as="geometry" />
        </mxCell>
        <mxCell id="yOrsMwtDgCDL1MWCUsw5-37" value="" style="edgeStyle=orthogonalEdgeStyle;rounded=0;orthogonalLoop=1;jettySize=auto;html=1;" edge="1" parent="WIyWlLk6GJQsqaUBKTNV-1" source="yOrsMwtDgCDL1MWCUsw5-19" target="yOrsMwtDgCDL1MWCUsw5-36">
          <mxGeometry relative="1" as="geometry" />
        </mxCell>
        <mxCell id="yOrsMwtDgCDL1MWCUsw5-19" value="env._run_steps()" style="rounded=1;whiteSpace=wrap;html=1;" vertex="1" parent="WIyWlLk6GJQsqaUBKTNV-1">
          <mxGeometry x="115" y="760" width="120" height="60" as="geometry" />
        </mxCell>
        <mxCell id="yOrsMwtDgCDL1MWCUsw5-21" value="observations = env._compute_observations()&lt;div&gt;rewards = env._compute_rewards()&lt;/div&gt;&lt;div&gt;dones = env._compute_dones()&lt;/div&gt;&lt;div&gt;info=env._compute_info()&lt;/div&gt;" style="rounded=1;whiteSpace=wrap;html=1;" vertex="1" parent="WIyWlLk6GJQsqaUBKTNV-1">
          <mxGeometry x="40" y="850" width="270" height="80" as="geometry" />
        </mxCell>
        <mxCell id="yOrsMwtDgCDL1MWCUsw5-44" value="" style="edgeStyle=orthogonalEdgeStyle;rounded=0;orthogonalLoop=1;jettySize=auto;html=1;" edge="1" parent="WIyWlLk6GJQsqaUBKTNV-1" source="yOrsMwtDgCDL1MWCUsw5-23" target="yOrsMwtDgCDL1MWCUsw5-43">
          <mxGeometry relative="1" as="geometry" />
        </mxCell>
        <mxCell id="yOrsMwtDgCDL1MWCUsw5-23" value="&lt;div&gt;traffic_signals[ts].set_next_phase(action)&lt;/div&gt;" style="rounded=1;whiteSpace=wrap;html=1;" vertex="1" parent="WIyWlLk6GJQsqaUBKTNV-1">
          <mxGeometry x="575" y="660" width="260" height="60" as="geometry" />
        </mxCell>
        <mxCell id="yOrsMwtDgCDL1MWCUsw5-41" value="" style="edgeStyle=orthogonalEdgeStyle;rounded=0;orthogonalLoop=1;jettySize=auto;html=1;" edge="1" parent="WIyWlLk6GJQsqaUBKTNV-1" source="yOrsMwtDgCDL1MWCUsw5-26" target="yOrsMwtDgCDL1MWCUsw5-40">
          <mxGeometry relative="1" as="geometry" />
        </mxCell>
        <mxCell id="yOrsMwtDgCDL1MWCUsw5-26" value="env._sumo_step()&lt;div&gt;env.traffic_signals[ts].update()&lt;/div&gt;" style="rounded=1;whiteSpace=wrap;html=1;" vertex="1" parent="WIyWlLk6GJQsqaUBKTNV-1">
          <mxGeometry x="345" y="860" width="180" height="60" as="geometry" />
        </mxCell>
        <mxCell id="yOrsMwtDgCDL1MWCUsw5-32" style="edgeStyle=orthogonalEdgeStyle;rounded=0;orthogonalLoop=1;jettySize=auto;html=1;entryX=0;entryY=0.5;entryDx=0;entryDy=0;" edge="1" parent="WIyWlLk6GJQsqaUBKTNV-1" source="yOrsMwtDgCDL1MWCUsw5-30" target="yOrsMwtDgCDL1MWCUsw5-23">
          <mxGeometry relative="1" as="geometry" />
        </mxCell>
        <mxCell id="yOrsMwtDgCDL1MWCUsw5-53" value="YES" style="edgeLabel;html=1;align=center;verticalAlign=middle;resizable=0;points=[];" vertex="1" connectable="0" parent="yOrsMwtDgCDL1MWCUsw5-32">
          <mxGeometry x="-0.1429" y="3" relative="1" as="geometry">
            <mxPoint as="offset" />
          </mxGeometry>
        </mxCell>
        <mxCell id="yOrsMwtDgCDL1MWCUsw5-30" value="if&amp;nbsp;&lt;div&gt;traffic_signals[ts].time_to_act&lt;/div&gt;" style="rhombus;whiteSpace=wrap;html=1;rounded=1;" vertex="1" parent="WIyWlLk6GJQsqaUBKTNV-1">
          <mxGeometry x="325" y="650" width="180" height="80" as="geometry" />
        </mxCell>
        <mxCell id="yOrsMwtDgCDL1MWCUsw5-34" value="time_to_act = True" style="whiteSpace=wrap;html=1;" vertex="1" parent="WIyWlLk6GJQsqaUBKTNV-1">
          <mxGeometry x="147.5" y="960" width="120" height="40" as="geometry" />
        </mxCell>
        <mxCell id="yOrsMwtDgCDL1MWCUsw5-38" value="True" style="edgeStyle=orthogonalEdgeStyle;rounded=0;orthogonalLoop=1;jettySize=auto;html=1;" edge="1" parent="WIyWlLk6GJQsqaUBKTNV-1" source="yOrsMwtDgCDL1MWCUsw5-36" target="yOrsMwtDgCDL1MWCUsw5-26">
          <mxGeometry relative="1" as="geometry" />
        </mxCell>
        <mxCell id="yOrsMwtDgCDL1MWCUsw5-36" value="while not time_to_act" style="rhombus;whiteSpace=wrap;html=1;rounded=1;" vertex="1" parent="WIyWlLk6GJQsqaUBKTNV-1">
          <mxGeometry x="345" y="750" width="180" height="80" as="geometry" />
        </mxCell>
        <mxCell id="yOrsMwtDgCDL1MWCUsw5-42" value="YES" style="edgeStyle=orthogonalEdgeStyle;rounded=0;orthogonalLoop=1;jettySize=auto;html=1;" edge="1" parent="WIyWlLk6GJQsqaUBKTNV-1" source="yOrsMwtDgCDL1MWCUsw5-40" target="yOrsMwtDgCDL1MWCUsw5-34">
          <mxGeometry relative="1" as="geometry" />
        </mxCell>
        <mxCell id="yOrsMwtDgCDL1MWCUsw5-40" value="if&amp;nbsp;&lt;div&gt;env.traffic_signals[ts].time_to_act&lt;/div&gt;" style="rhombus;whiteSpace=wrap;html=1;rounded=1;" vertex="1" parent="WIyWlLk6GJQsqaUBKTNV-1">
          <mxGeometry x="315" y="950" width="240" height="60" as="geometry" />
        </mxCell>
        <mxCell id="yOrsMwtDgCDL1MWCUsw5-46" value="" style="edgeStyle=orthogonalEdgeStyle;rounded=0;orthogonalLoop=1;jettySize=auto;html=1;" edge="1" parent="WIyWlLk6GJQsqaUBKTNV-1" source="yOrsMwtDgCDL1MWCUsw5-43" target="yOrsMwtDgCDL1MWCUsw5-45">
          <mxGeometry relative="1" as="geometry" />
        </mxCell>
        <mxCell id="yOrsMwtDgCDL1MWCUsw5-43" value="new_phase=int(action)" style="whiteSpace=wrap;html=1;rounded=1;" vertex="1" parent="WIyWlLk6GJQsqaUBKTNV-1">
          <mxGeometry x="605" y="752.5" width="200" height="60" as="geometry" />
        </mxCell>
        <mxCell id="yOrsMwtDgCDL1MWCUsw5-48" value="" style="edgeStyle=orthogonalEdgeStyle;rounded=0;orthogonalLoop=1;jettySize=auto;html=1;" edge="1" parent="WIyWlLk6GJQsqaUBKTNV-1" source="yOrsMwtDgCDL1MWCUsw5-45" target="yOrsMwtDgCDL1MWCUsw5-47">
          <mxGeometry relative="1" as="geometry">
            <Array as="points">
              <mxPoint x="560" y="905" />
              <mxPoint x="560" y="1030" />
              <mxPoint x="270" y="1030" />
            </Array>
          </mxGeometry>
        </mxCell>
        <mxCell id="yOrsMwtDgCDL1MWCUsw5-51" value="YES" style="edgeLabel;html=1;align=center;verticalAlign=middle;resizable=0;points=[];" vertex="1" connectable="0" parent="yOrsMwtDgCDL1MWCUsw5-48">
          <mxGeometry x="0.2" relative="1" as="geometry">
            <mxPoint as="offset" />
          </mxGeometry>
        </mxCell>
        <mxCell id="yOrsMwtDgCDL1MWCUsw5-50" value="" style="edgeStyle=orthogonalEdgeStyle;rounded=0;orthogonalLoop=1;jettySize=auto;html=1;" edge="1" parent="WIyWlLk6GJQsqaUBKTNV-1" source="yOrsMwtDgCDL1MWCUsw5-45" target="yOrsMwtDgCDL1MWCUsw5-49">
          <mxGeometry relative="1" as="geometry" />
        </mxCell>
        <mxCell id="yOrsMwtDgCDL1MWCUsw5-52" value="NO" style="edgeLabel;html=1;align=center;verticalAlign=middle;resizable=0;points=[];" vertex="1" connectable="0" parent="yOrsMwtDgCDL1MWCUsw5-50">
          <mxGeometry x="-0.12" y="4" relative="1" as="geometry">
            <mxPoint as="offset" />
          </mxGeometry>
        </mxCell>
        <mxCell id="yOrsMwtDgCDL1MWCUsw5-45" value="&lt;div&gt;if&lt;/div&gt;env.green_phase == new_phase or&lt;div&gt;env.time_since_last_phase_change&lt;/div&gt;&lt;div&gt;&amp;lt; env.yellow_time + env.min_green&lt;/div&gt;&lt;div&gt;当前相位？&lt;/div&gt;" style="rhombus;whiteSpace=wrap;html=1;rounded=1;" vertex="1" parent="WIyWlLk6GJQsqaUBKTNV-1">
          <mxGeometry x="565" y="840" width="280" height="130" as="geometry" />
        </mxCell>
        <mxCell id="yOrsMwtDgCDL1MWCUsw5-47" value="sumo.trafficlight.setRedYellowGreenState(&lt;div&gt;env.id,env.all_phases[env.green_phase].state)&lt;/div&gt;&lt;div&gt;env.next_action_time=env.sim_step+env.delta_time&lt;/div&gt;" style="whiteSpace=wrap;html=1;rounded=1;" vertex="1" parent="WIyWlLk6GJQsqaUBKTNV-1">
          <mxGeometry x="130" y="1072.5" width="280" height="60" as="geometry" />
        </mxCell>
        <mxCell id="yOrsMwtDgCDL1MWCUsw5-49" value="sumo.trafficlight.setRedYellowGreenState(&lt;div&gt;env.id,env.all_phases[env.yellow_dict[(env.green_phase,new_phase)]])&lt;/div&gt;&lt;div&gt;env.green_phase=new_phase&lt;/div&gt;&lt;div&gt;env.next_action_time=env.env.sim_stop+env.delta_time&lt;/div&gt;&lt;div&gt;env.is_yellow=True&lt;/div&gt;&lt;div&gt;env.time_since_last_phase_change=0&lt;/div&gt;" style="whiteSpace=wrap;html=1;rounded=1;" vertex="1" parent="WIyWlLk6GJQsqaUBKTNV-1">
          <mxGeometry x="505" y="1050" width="400" height="105" as="geometry" />
        </mxCell>
        <mxCell id="yOrsMwtDgCDL1MWCUsw5-56" value="" style="edgeStyle=orthogonalEdgeStyle;rounded=0;orthogonalLoop=1;jettySize=auto;html=1;" edge="1" parent="WIyWlLk6GJQsqaUBKTNV-1" source="yOrsMwtDgCDL1MWCUsw5-54" target="yOrsMwtDgCDL1MWCUsw5-55">
          <mxGeometry relative="1" as="geometry" />
        </mxCell>
        <mxCell id="yOrsMwtDgCDL1MWCUsw5-54" value="env.traffic_signals[ts].update()" style="rounded=1;whiteSpace=wrap;html=1;" vertex="1" parent="WIyWlLk6GJQsqaUBKTNV-1">
          <mxGeometry x="550" y="200" width="190" height="60" as="geometry" />
        </mxCell>
        <mxCell id="yOrsMwtDgCDL1MWCUsw5-58" value="" style="edgeStyle=orthogonalEdgeStyle;rounded=0;orthogonalLoop=1;jettySize=auto;html=1;" edge="1" parent="WIyWlLk6GJQsqaUBKTNV-1" source="yOrsMwtDgCDL1MWCUsw5-55" target="yOrsMwtDgCDL1MWCUsw5-57">
          <mxGeometry relative="1" as="geometry" />
        </mxCell>
        <mxCell id="yOrsMwtDgCDL1MWCUsw5-55" value="env.time_since_last_phase_change += 1" style="whiteSpace=wrap;html=1;rounded=1;" vertex="1" parent="WIyWlLk6GJQsqaUBKTNV-1">
          <mxGeometry x="527.5" y="310" width="235" height="60" as="geometry" />
        </mxCell>
        <mxCell id="yOrsMwtDgCDL1MWCUsw5-60" value="" style="edgeStyle=orthogonalEdgeStyle;rounded=0;orthogonalLoop=1;jettySize=auto;html=1;" edge="1" parent="WIyWlLk6GJQsqaUBKTNV-1" source="yOrsMwtDgCDL1MWCUsw5-57" target="yOrsMwtDgCDL1MWCUsw5-59">
          <mxGeometry relative="1" as="geometry" />
        </mxCell>
        <mxCell id="yOrsMwtDgCDL1MWCUsw5-57" value="if&lt;div&gt;env.is_yellow_time and&lt;/div&gt;&lt;div&gt;env.time_since_last_phase_change&amp;nbsp;&lt;/div&gt;&lt;div&gt;= env.yellow_time&lt;/div&gt;" style="rhombus;whiteSpace=wrap;html=1;rounded=1;" vertex="1" parent="WIyWlLk6GJQsqaUBKTNV-1">
          <mxGeometry x="490" y="410" width="310" height="80" as="geometry" />
        </mxCell>
        <mxCell id="yOrsMwtDgCDL1MWCUsw5-59" value="sumo.trafficlight.setRedYellowGreenState(&lt;div&gt;env.id,env.all_phases[env.green_phase].state&lt;span style=&quot;background-color: initial;&quot;&gt;)&lt;/span&gt;&lt;/div&gt;&lt;div&gt;&lt;span style=&quot;background-color: initial;&quot;&gt;env.is_yellow=False&lt;/span&gt;&lt;/div&gt;" style="whiteSpace=wrap;html=1;rounded=1;" vertex="1" parent="WIyWlLk6GJQsqaUBKTNV-1">
          <mxGeometry x="505" y="530" width="280" height="70" as="geometry" />
        </mxCell>
      </root>
    </mxGraphModel>
  </diagram>
</mxfile>
